# xmcd
#
# Track frame offsets: 
#        150
#        5956
#        23930
#        50835
#        69358
#        87907
#        92566
#        112814
#        127931
#        149832
#        157560
#        177373
#        184978
#        202003
#        212387
#        232029
#        251169
#        277988
#        290748
#        303816
#        305160
#
# Disc length: 4348 seconds
#
# Revision: 0
# Processed by: cddbd v1.5PL3 Copyright (c) Steve Scherf et al.
# Submitted via: ExactAudioCopy v0.95a4
#
DISCID=3310fa15
DTITLE=John Trudell - The Collection Interview
DYEAR=2003
DGENRE=Native American
TTITLE0=Introductory voice over
TTITLE1=About Tribal Voice Album
TTITLE2=Look At Us (Peltier-AIM Song)
TTITLE3=About aka Grafitti Man Album
TTITLE4=Grafitti Man
TTITLE5=About Heart Jump Bouquet Album
TTITLE6=Restless Situations
TTITLE7=About But This Isn't El Salvador Album
TTITLE8=But This Isn't El Salvador
TTITLE9=About Fables And Other Realities Album
TTITLE10=Fables And Other Realities
TTITLE11=About Children Of Earth - Child's Voice Album
TTITLE12=Children Of Earth - Child's Voice
TTITLE13=The politic of the world is just headed off into madness
TTITLE14=Shaman (Make A Chant)
TTITLE15=Every individual has the responsibility to use their intellig
TTITLE15=ence
TTITLE16=Tina Smiled
TTITLE17=About his career and Jesse Ed Davis
TTITLE18=Some People Say
TTITLE19=Exit voice over
TTITLE20=The Dream
EXTD=
EXTT0=
EXTT1=
EXTT2=
EXTT3=
EXTT4=
EXTT5=
EXTT6=
EXTT7=
EXTT8=
EXTT9=
EXTT10=
EXTT11=
EXTT12=
EXTT13=
EXTT14=
EXTT15=
EXTT16=
EXTT17=
EXTT18=
EXTT19=
EXTT20=
PLAYORDER=
